<mxfile modified="2020-11-17T00:54:48.739Z" host="app.diagrams.net" agent="5.0 (Windows NT 10.0; Win64; x64) AppleWebKit/537.36 (KHTML, like Gecko) Chrome/86.0.4240.198 Safari/537.36" etag="FrM6oHc5HfrxsV2twnzn" version="13.7.9" type="github">
  <diagram id="Ht1M8jgEwFfnCIfOTk4-" name="Page-1">
    <mxGraphModel dx="1209" dy="627" grid="1" gridSize="10" guides="1" tooltips="1" connect="1" arrows="1" fold="1" page="1" pageScale="1" pageWidth="1169" pageHeight="827" math="0" shadow="0">
      <root>
        <mxCell id="0" />
        <mxCell id="1" parent="0" />
        <mxCell id="UEzPUAAOIrF-is8g5C7q-128" style="edgeStyle=orthogonalEdgeStyle;rounded=0;orthogonalLoop=1;jettySize=auto;html=1;startArrow=open;startFill=0;endArrow=open;endFill=0;strokeWidth=2;strokeColor=#808080;" parent="1" target="UEzPUAAOIrF-is8g5C7q-114" edge="1">
          <mxGeometry relative="1" as="geometry">
            <Array as="points">
              <mxPoint x="315" y="610" />
              <mxPoint x="315" y="525" />
            </Array>
            <mxPoint x="200" y="610" as="sourcePoint" />
          </mxGeometry>
        </mxCell>
        <mxCell id="UEzPUAAOIrF-is8g5C7q-129" style="edgeStyle=orthogonalEdgeStyle;rounded=0;orthogonalLoop=1;jettySize=auto;html=1;startArrow=open;startFill=0;endArrow=open;endFill=0;strokeWidth=2;strokeColor=#808080;" parent="1" source="UEzPUAAOIrF-is8g5C7q-114" target="UEzPUAAOIrF-is8g5C7q-115" edge="1">
          <mxGeometry relative="1" as="geometry">
            <Array as="points">
              <mxPoint x="515" y="540" />
              <mxPoint x="515" y="540" />
            </Array>
          </mxGeometry>
        </mxCell>
        <mxCell id="UEzPUAAOIrF-is8g5C7q-133" style="edgeStyle=orthogonalEdgeStyle;rounded=0;orthogonalLoop=1;jettySize=auto;html=1;startArrow=open;startFill=0;endArrow=open;endFill=0;strokeWidth=2;strokeColor=#808080;" parent="1" source="UEzPUAAOIrF-is8g5C7q-115" target="UEzPUAAOIrF-is8g5C7q-119" edge="1">
          <mxGeometry relative="1" as="geometry">
            <Array as="points">
              <mxPoint x="790" y="530" />
              <mxPoint x="790" y="530" />
            </Array>
            <mxPoint x="805.0000000000002" y="564" as="targetPoint" />
          </mxGeometry>
        </mxCell>
        <mxCell id="UEzPUAAOIrF-is8g5C7q-134" style="edgeStyle=orthogonalEdgeStyle;rounded=0;orthogonalLoop=1;jettySize=auto;html=1;startArrow=open;startFill=0;endArrow=open;endFill=0;strokeWidth=2;strokeColor=#808080;" parent="1" source="UEzPUAAOIrF-is8g5C7q-115" target="UEzPUAAOIrF-is8g5C7q-121" edge="1">
          <mxGeometry relative="1" as="geometry">
            <Array as="points">
              <mxPoint x="745" y="540" />
              <mxPoint x="745" y="679" />
            </Array>
          </mxGeometry>
        </mxCell>
        <mxCell id="UEzPUAAOIrF-is8g5C7q-142" style="edgeStyle=orthogonalEdgeStyle;rounded=0;orthogonalLoop=1;jettySize=auto;html=1;startArrow=open;startFill=0;endArrow=open;endFill=0;strokeWidth=2;strokeColor=#808080;" parent="1" source="UEzPUAAOIrF-is8g5C7q-114" target="UEzPUAAOIrF-is8g5C7q-115" edge="1">
          <mxGeometry relative="1" as="geometry">
            <mxPoint x="462" y="535" as="sourcePoint" />
            <mxPoint x="595" y="535" as="targetPoint" />
            <Array as="points">
              <mxPoint x="515" y="520" />
              <mxPoint x="515" y="520" />
            </Array>
          </mxGeometry>
        </mxCell>
        <mxCell id="UEzPUAAOIrF-is8g5C7q-111" value="Amazon &lt;br&gt;Cognito" style="outlineConnect=0;fontColor=#232F3E;gradientColor=#F54749;gradientDirection=north;fillColor=#C7131F;strokeColor=#ffffff;dashed=0;verticalLabelPosition=bottom;verticalAlign=top;align=center;html=1;fontSize=12;fontStyle=0;aspect=fixed;shape=mxgraph.aws4.resourceIcon;resIcon=mxgraph.aws4.cognito;labelBackgroundColor=#ffffff;" parent="1" vertex="1">
          <mxGeometry x="390" y="240" width="78" height="78" as="geometry" />
        </mxCell>
        <mxCell id="UEzPUAAOIrF-is8g5C7q-114" value="Amazon API&lt;br&gt;Gateway&lt;br&gt;" style="outlineConnect=0;fontColor=#232F3E;gradientColor=#945DF2;gradientDirection=north;fillColor=#5A30B5;strokeColor=#ffffff;dashed=0;verticalLabelPosition=bottom;verticalAlign=top;align=center;html=1;fontSize=12;fontStyle=0;aspect=fixed;shape=mxgraph.aws4.resourceIcon;resIcon=mxgraph.aws4.api_gateway;labelBackgroundColor=#ffffff;" parent="1" vertex="1">
          <mxGeometry x="374" y="470" width="94" height="94" as="geometry" />
        </mxCell>
        <mxCell id="UEzPUAAOIrF-is8g5C7q-115" value="Lambda&lt;br&gt;function" style="outlineConnect=0;fontColor=#232F3E;gradientColor=none;fillColor=#D05C17;strokeColor=none;dashed=0;verticalLabelPosition=bottom;verticalAlign=top;align=center;html=1;fontSize=12;fontStyle=0;aspect=fixed;pointerEvents=1;shape=mxgraph.aws4.lambda_function;labelBackgroundColor=#ffffff;" parent="1" vertex="1">
          <mxGeometry x="585" y="486" width="78" height="78" as="geometry" />
        </mxCell>
        <mxCell id="fc9vdhBPrBxlH9aMz3zb-10" style="edgeStyle=orthogonalEdgeStyle;rounded=0;orthogonalLoop=1;jettySize=auto;html=1;" edge="1" parent="1" source="UEzPUAAOIrF-is8g5C7q-116" target="fc9vdhBPrBxlH9aMz3zb-7">
          <mxGeometry relative="1" as="geometry" />
        </mxCell>
        <mxCell id="UEzPUAAOIrF-is8g5C7q-116" value="File &lt;br&gt;Storage bucket" style="outlineConnect=0;fontColor=#232F3E;gradientColor=#60A337;gradientDirection=north;fillColor=#277116;strokeColor=#ffffff;dashed=0;verticalLabelPosition=bottom;verticalAlign=top;align=center;html=1;fontSize=12;fontStyle=0;aspect=fixed;shape=mxgraph.aws4.resourceIcon;resIcon=mxgraph.aws4.s3;labelBackgroundColor=#ffffff;direction=south;" parent="1" vertex="1">
          <mxGeometry x="480.0000000000002" y="120" width="78" height="78" as="geometry" />
        </mxCell>
        <mxCell id="UEzPUAAOIrF-is8g5C7q-119" value="MyLife database" style="outlineConnect=0;fontColor=#232F3E;gradientColor=#4D72F3;gradientDirection=north;fillColor=#3334B9;strokeColor=#ffffff;dashed=0;verticalLabelPosition=bottom;verticalAlign=top;align=center;html=1;fontSize=12;fontStyle=0;aspect=fixed;shape=mxgraph.aws4.resourceIcon;resIcon=mxgraph.aws4.dynamodb;labelBackgroundColor=#ffffff;spacingTop=5;" parent="1" vertex="1">
          <mxGeometry x="840" y="510" width="77.5" height="77.5" as="geometry" />
        </mxCell>
        <mxCell id="UEzPUAAOIrF-is8g5C7q-121" value="All application Logs stored here&amp;nbsp;" style="outlineConnect=0;fontColor=#232F3E;gradientColor=#F34482;gradientDirection=north;fillColor=#BC1356;strokeColor=#ffffff;dashed=0;verticalLabelPosition=bottom;verticalAlign=top;align=center;html=1;fontSize=12;fontStyle=0;aspect=fixed;shape=mxgraph.aws4.resourceIcon;resIcon=mxgraph.aws4.cloudwatch;labelBackgroundColor=#ffffff;direction=west;" parent="1" vertex="1">
          <mxGeometry x="710.0000000000002" y="628" width="78" height="78" as="geometry" />
        </mxCell>
        <mxCell id="fc9vdhBPrBxlH9aMz3zb-2" value="" style="edgeStyle=orthogonalEdgeStyle;html=1;endArrow=block;elbow=vertical;startArrow=none;endFill=1;strokeColor=#545B64;rounded=0;" edge="1" parent="1" target="UEzPUAAOIrF-is8g5C7q-116">
          <mxGeometry width="100" relative="1" as="geometry">
            <mxPoint x="250" y="150" as="sourcePoint" />
            <mxPoint x="800" y="30" as="targetPoint" />
            <Array as="points">
              <mxPoint x="280" y="150" />
              <mxPoint x="499" y="150" />
            </Array>
          </mxGeometry>
        </mxCell>
        <mxCell id="fc9vdhBPrBxlH9aMz3zb-3" value="" style="shape=actor;whiteSpace=wrap;html=1;" vertex="1" parent="1">
          <mxGeometry x="200" y="128.75" width="40" height="60" as="geometry" />
        </mxCell>
        <mxCell id="fc9vdhBPrBxlH9aMz3zb-6" value="User uploads input csv file to get business type in a zipcode, it can be multiple queries with buisness/zipcode data" style="text;html=1;strokeColor=none;fillColor=none;align=center;verticalAlign=middle;whiteSpace=wrap;rounded=0;" vertex="1" parent="1">
          <mxGeometry x="60" y="131.75" width="130" height="57" as="geometry" />
        </mxCell>
        <mxCell id="fc9vdhBPrBxlH9aMz3zb-11" style="edgeStyle=orthogonalEdgeStyle;rounded=0;orthogonalLoop=1;jettySize=auto;html=1;" edge="1" parent="1" source="fc9vdhBPrBxlH9aMz3zb-7" target="UEzPUAAOIrF-is8g5C7q-119">
          <mxGeometry relative="1" as="geometry" />
        </mxCell>
        <mxCell id="fc9vdhBPrBxlH9aMz3zb-7" value="Lambda&lt;br&gt;function" style="outlineConnect=0;fontColor=#232F3E;gradientColor=none;fillColor=#D05C17;strokeColor=none;dashed=0;verticalLabelPosition=bottom;verticalAlign=top;align=center;html=1;fontSize=12;fontStyle=0;aspect=fixed;pointerEvents=1;shape=mxgraph.aws4.lambda_function;labelBackgroundColor=#ffffff;" vertex="1" parent="1">
          <mxGeometry x="640" y="119.5" width="78" height="78" as="geometry" />
        </mxCell>
        <mxCell id="fc9vdhBPrBxlH9aMz3zb-13" value="" style="outlineConnect=0;fontColor=#232F3E;gradientColor=none;fillColor=#232F3E;strokeColor=none;dashed=0;verticalLabelPosition=bottom;verticalAlign=top;align=center;html=1;fontSize=12;fontStyle=0;aspect=fixed;pointerEvents=1;shape=mxgraph.aws4.mobile_client;" vertex="1" parent="1">
          <mxGeometry x="149" y="550" width="41" height="78" as="geometry" />
        </mxCell>
        <mxCell id="fc9vdhBPrBxlH9aMz3zb-14" value="" style="edgeStyle=orthogonalEdgeStyle;html=1;endArrow=block;elbow=vertical;startArrow=none;endFill=1;strokeColor=#545B64;rounded=0;" edge="1" parent="1" target="UEzPUAAOIrF-is8g5C7q-111">
          <mxGeometry width="100" relative="1" as="geometry">
            <mxPoint x="160" y="410" as="sourcePoint" />
            <mxPoint x="160" y="300" as="targetPoint" />
            <Array as="points">
              <mxPoint x="160" y="280" />
            </Array>
          </mxGeometry>
        </mxCell>
        <mxCell id="fc9vdhBPrBxlH9aMz3zb-16" value="" style="edgeStyle=orthogonalEdgeStyle;html=1;endArrow=none;elbow=vertical;startArrow=block;startFill=1;strokeColor=#545B64;rounded=0;" edge="1" parent="1" target="UEzPUAAOIrF-is8g5C7q-111">
          <mxGeometry width="100" relative="1" as="geometry">
            <mxPoint x="180" y="410" as="sourcePoint" />
            <mxPoint x="350" y="310" as="targetPoint" />
            <Array as="points">
              <mxPoint x="180" y="350" />
              <mxPoint x="350" y="350" />
              <mxPoint x="350" y="300" />
            </Array>
          </mxGeometry>
        </mxCell>
        <mxCell id="fc9vdhBPrBxlH9aMz3zb-17" value="user enters username/pwd" style="text;html=1;strokeColor=none;fillColor=none;align=center;verticalAlign=middle;whiteSpace=wrap;rounded=0;" vertex="1" parent="1">
          <mxGeometry x="180" y="250" width="150" height="20" as="geometry" />
        </mxCell>
        <mxCell id="fc9vdhBPrBxlH9aMz3zb-18" value="token based claim" style="text;html=1;strokeColor=none;fillColor=none;align=center;verticalAlign=middle;whiteSpace=wrap;rounded=0;" vertex="1" parent="1">
          <mxGeometry x="210" y="318" width="70" height="20" as="geometry" />
        </mxCell>
        <mxCell id="fc9vdhBPrBxlH9aMz3zb-12" value="" style="outlineConnect=0;fontColor=#232F3E;gradientColor=none;fillColor=#232F3E;strokeColor=none;dashed=0;verticalLabelPosition=bottom;verticalAlign=top;align=center;html=1;fontSize=12;fontStyle=0;aspect=fixed;pointerEvents=1;shape=mxgraph.aws4.client;" vertex="1" parent="1">
          <mxGeometry x="132" y="414" width="78" height="76" as="geometry" />
        </mxCell>
        <mxCell id="fc9vdhBPrBxlH9aMz3zb-21" value="token based auth to api" style="text;html=1;strokeColor=none;fillColor=none;align=center;verticalAlign=middle;whiteSpace=wrap;rounded=0;" vertex="1" parent="1">
          <mxGeometry x="240" y="414" width="90" height="20" as="geometry" />
        </mxCell>
        <mxCell id="fc9vdhBPrBxlH9aMz3zb-25" style="edgeStyle=orthogonalEdgeStyle;rounded=0;orthogonalLoop=1;jettySize=auto;html=1;startArrow=open;startFill=0;endArrow=open;endFill=0;strokeWidth=2;strokeColor=#808080;" edge="1" parent="1" source="fc9vdhBPrBxlH9aMz3zb-12">
          <mxGeometry relative="1" as="geometry">
            <Array as="points">
              <mxPoint x="320" y="452" />
              <mxPoint x="320" y="480" />
            </Array>
            <mxPoint x="209.81242717429723" y="430" as="sourcePoint" />
            <mxPoint x="370" y="480" as="targetPoint" />
          </mxGeometry>
        </mxCell>
        <mxCell id="fc9vdhBPrBxlH9aMz3zb-27" value="user enters username/pwd" style="text;html=1;strokeColor=none;fillColor=none;align=center;verticalAlign=middle;whiteSpace=wrap;rounded=0;" vertex="1" parent="1">
          <mxGeometry x="210" y="622" width="150" height="20" as="geometry" />
        </mxCell>
        <mxCell id="fc9vdhBPrBxlH9aMz3zb-30" value="token based auth to api" style="text;html=1;strokeColor=none;fillColor=none;align=center;verticalAlign=middle;whiteSpace=wrap;rounded=0;" vertex="1" parent="1">
          <mxGeometry x="220" y="564" width="90" height="20" as="geometry" />
        </mxCell>
      </root>
    </mxGraphModel>
  </diagram>
</mxfile>
